<svg width="11" height="20" viewBox="0 0 11 20" fill="none" xmlns="http://www.w3.org/2000/svg">
<path d="M1.6525 19.3925C1.44667 19.3925 1.24084 19.3167 1.07834 19.1542C0.764171 18.84 0.764171 18.32 1.07834 18.0058L8.14167 10.9425C8.66167 10.4225 8.66167 9.57749 8.14167 9.05749L1.07834 1.99416C0.764171 1.67999 0.764171 1.15999 1.07834 0.845824C1.3925 0.531657 1.9125 0.531657 2.22667 0.845824L9.29001 7.90916C9.84251 8.46166 10.1567 9.20916 10.1567 9.99999C10.1567 10.7908 9.85334 11.5383 9.29001 12.0908L2.22667 19.1542C2.06417 19.3058 1.85834 19.3925 1.6525 19.3925Z" fill="#1A2630"/>
</svg>
