<svg width="11" height="20" viewBox="0 0 11 20" fill="none" xmlns="http://www.w3.org/2000/svg">
<path d="M9.3475 19.3925C9.55333 19.3925 9.75916 19.3167 9.92166 19.1542C10.2358 18.84 10.2358 18.32 9.92166 18.0058L2.85833 10.9425C2.33833 10.4225 2.33833 9.57749 2.85833 9.05749L9.92166 1.99416C10.2358 1.67999 10.2358 1.15999 9.92166 0.845824C9.6075 0.531657 9.0875 0.531657 8.77333 0.845824L1.70999 7.90916C1.15749 8.46166 0.843328 9.20916 0.843328 9.99999C0.843328 10.7908 1.14666 11.5383 1.70999 12.0908L8.77333 19.1542C8.93583 19.3058 9.14166 19.3925 9.3475 19.3925Z" fill="#1A2630"/>
</svg>
