<svg width="20" height="20" viewBox="0 0 20 20" fill="none" xmlns="http://www.w3.org/2000/svg">
<path d="M14.5417 18.9583C13.6 18.9583 12.6084 18.7333 11.5834 18.3C10.5834 17.875 9.57502 17.2916 8.59169 16.5833C7.61669 15.8666 6.67502 15.0666 5.78335 14.1916C4.90002 13.3 4.10002 12.3583 3.39169 11.3916C2.67502 10.3916 2.10002 9.39163 1.69169 8.42496C1.25835 7.39163 1.04169 6.39163 1.04169 5.44996C1.04169 4.79996 1.15835 4.18329 1.38335 3.60829C1.61669 3.01663 1.99169 2.46663 2.50002 1.99163C3.14169 1.35829 3.87502 1.04163 4.65835 1.04163C4.98335 1.04163 5.31669 1.11663 5.60002 1.24996C5.92502 1.39996 6.20002 1.62496 6.40002 1.92496L8.33335 4.64996C8.50835 4.89163 8.64169 5.12496 8.73335 5.35829C8.84169 5.60829 8.90002 5.85829 8.90002 6.09996C8.90002 6.41663 8.80835 6.72496 8.63335 7.01663C8.50835 7.24163 8.31669 7.48329 8.07502 7.72496L7.50835 8.31663C7.51669 8.34163 7.52502 8.35829 7.53335 8.37496C7.63335 8.54996 7.83335 8.84996 8.21669 9.29996C8.62502 9.76663 9.00835 10.1916 9.39169 10.5833C9.88335 11.0666 10.2917 11.45 10.675 11.7666C11.15 12.1666 11.4584 12.3666 11.6417 12.4583L11.625 12.5L12.2334 11.9C12.4917 11.6416 12.7417 11.45 12.9834 11.325C13.4417 11.0416 14.025 10.9916 14.6084 11.2333C14.825 11.325 15.0584 11.45 15.3084 11.625L18.075 13.5916C18.3834 13.8 18.6084 14.0666 18.7417 14.3833C18.8667 14.7 18.925 14.9916 18.925 15.2833C18.925 15.6833 18.8334 16.0833 18.6584 16.4583C18.4834 16.8333 18.2667 17.1583 17.9917 17.4583C17.5167 17.9833 17 18.3583 16.4 18.6C15.825 18.8333 15.2 18.9583 14.5417 18.9583ZM4.65835 2.29163C4.20002 2.29163 3.77502 2.49163 3.36669 2.89163C2.98335 3.24996 2.71669 3.64163 2.55002 4.06663C2.37502 4.49996 2.29169 4.95829 2.29169 5.44996C2.29169 6.22496 2.47502 7.06663 2.84169 7.93329C3.21669 8.81663 3.74169 9.73329 4.40835 10.65C5.07502 11.5666 5.83335 12.4583 6.66669 13.3C7.50002 14.125 8.40002 14.8916 9.32502 15.5666C10.225 16.225 11.15 16.7583 12.0667 17.1416C13.4917 17.75 14.825 17.8916 15.925 17.4333C16.35 17.2583 16.725 16.9916 17.0667 16.6083C17.2584 16.4 17.4084 16.175 17.5334 15.9083C17.6334 15.7 17.6834 15.4833 17.6834 15.2666C17.6834 15.1333 17.6584 15 17.5917 14.85C17.5667 14.8 17.5167 14.7083 17.3584 14.6L14.5917 12.6333C14.425 12.5166 14.275 12.4333 14.1334 12.375C13.95 12.3 13.875 12.225 13.5917 12.4C13.425 12.4833 13.275 12.6083 13.1084 12.775L12.475 13.4C12.15 13.7166 11.65 13.7916 11.2667 13.65L11.0417 13.55C10.7 13.3666 10.3 13.0833 9.85835 12.7083C9.45835 12.3666 9.02502 11.9666 8.50002 11.45C8.09169 11.0333 7.68335 10.5916 7.25835 10.1C6.86669 9.64163 6.58335 9.24996 6.40835 8.92496L6.30835 8.67496C6.25835 8.48329 6.24169 8.37496 6.24169 8.25829C6.24169 7.95829 6.35002 7.69163 6.55835 7.48329L7.18335 6.83329C7.35002 6.66663 7.47502 6.50829 7.55835 6.36663C7.62502 6.25829 7.65002 6.16663 7.65002 6.08329C7.65002 6.01663 7.62502 5.91663 7.58335 5.81663C7.52502 5.68329 7.43335 5.53329 7.31669 5.37496L5.38335 2.64163C5.30002 2.52496 5.20002 2.44163 5.07502 2.38329C4.94169 2.32496 4.80002 2.29163 4.65835 2.29163ZM11.625 12.5083L11.4917 13.075L11.7167 12.4916C11.675 12.4833 11.6417 12.4916 11.625 12.5083Z" fill="#1A2630"/>
</svg>
